<?xml version="1.0" encoding="utf-8"?>
<!-- Generator: Adobe Illustrator 15.0.2, SVG Export Plug-In . SVG Version: 6.00 Build 0)  -->
<!DOCTYPE svg PUBLIC "-//W3C//DTD SVG 1.1//EN" "http://www.w3.org/Graphics/SVG/1.1/DTD/svg11.dtd">
<svg xmlns="http://www.w3.org/2000/svg" xmlns:xlink="http://www.w3.org/1999/xlink" xmlns:svg="http://www.w3.org/2000/svg" xmlns:dc="http://purl.org/dc/elements/1.1/" xmlns:cc="http://web.resource.org/cc/" xmlns:rdf="http://www.w3.org/1999/02/22-rdf-syntax-ns#" version="1.1" id="Layer_1" x="0px" y="0px" width="40px" height="40px" viewBox="0 0 40 40" enable-background="new 0 0 40 40" xml:space="preserve">
<polygon fill="#A7A9AC" points="36.351,32.435 25.5,36.271 25.5,3.94 36.351,6.242 "/>
<g>
	<path fill="#A7A9AC" d="M13.627,29.253l8.123-8.941c0.241-0.241,0.379-0.58,0.379-0.934c0-0.354-0.138-0.693-0.379-0.934   l-8.123-8.943c-0.346-0.348-0.853-0.44-1.286-0.238c-0.436,0.203-0.717,0.662-0.717,1.171v3.193H3.879   c-0.658,0-1.191,0.572-1.191,1.277v8.943c0,0.705,0.533,1.276,1.191,1.276h7.745v3.194c0,0.509,0.281,0.969,0.716,1.172   C12.774,29.693,13.28,29.601,13.627,29.253z"/>
	<path fill="#A7A9AC" d="M13.627,29.253l8.123-8.941c0.241-0.241,0.379-0.58,0.379-0.934c0-0.354-0.138-0.693-0.379-0.934   l-8.123-8.943c-0.346-0.348-0.853-0.44-1.286-0.238c-0.436,0.203-0.717,0.662-0.717,1.171v3.193H3.879   c-0.658,0-1.191,0.572-1.191,1.277v8.943c0,0.705,0.533,1.276,1.191,1.276h7.745v3.194c0,0.509,0.281,0.969,0.716,1.172   C12.774,29.693,13.28,29.601,13.627,29.253z"/>
</g>
<path fill="none" stroke="#A7A9AC" stroke-linecap="round" stroke-linejoin="round" stroke-miterlimit="10" d="M24.166,6.224h-1.288  c-1.78,0-3.223,1.442-3.223,3.223v3.981"/>
<path fill="none" stroke="#A7A9AC" stroke-linecap="round" stroke-linejoin="round" stroke-miterlimit="10" d="M19.655,25.495v3.733  c0,1.78,1.442,3.223,3.223,3.223h1.288"/>
<metadata><rdf:RDF><cc:Work><dc:format>image/svg+xml</dc:format><dc:type rdf:resource="http://purl.org/dc/dcmitype/StillImage"/><cc:license rdf:resource="http://creativecommons.org/licenses/publicdomain/"/><dc:publisher><cc:Agent rdf:about="http://openclipart.org/"><dc:title>Openclipart</dc:title></cc:Agent></dc:publisher><dc:title>Exit icon</dc:title><dc:date>2013-12-13T20:42:37</dc:date><dc:description>An exit icon</dc:description><dc:source>http://openclipart.org/detail/189459/exit-icon-by-ckhoo-189459</dc:source><dc:creator><cc:Agent><dc:title>ckhoo</dc:title></cc:Agent></dc:creator><dc:subject><rdf:Bag><rdf:li>exit</rdf:li><rdf:li>icon</rdf:li></rdf:Bag></dc:subject></cc:Work><cc:License rdf:about="http://creativecommons.org/licenses/publicdomain/"><cc:permits rdf:resource="http://creativecommons.org/ns#Reproduction"/><cc:permits rdf:resource="http://creativecommons.org/ns#Distribution"/><cc:permits rdf:resource="http://creativecommons.org/ns#DerivativeWorks"/></cc:License></rdf:RDF></metadata></svg>
